<svg width="96" height="96" viewBox="0 0 96 96" fill="none" xmlns="http://www.w3.org/2000/svg">
<circle cx="48" cy="48" r="48" fill="#F3F9FF"/>
<path d="M28.968 57.9273C37.4204 67.1738 48 74 48 74C48 74 77.3091 55.0909 77.3091 37.6C77.3091 28.9869 70.3222 22 61.7091 22C55.7906 22 50.8364 24.8364 48 29.5636C45.1636 24.8364 40.2095 22 34.2909 22C25.6778 22 18.6909 28.9869 18.6909 37.6C18.6909 42.5258 21.0167 47.5556 24.3542 52.2545" stroke="#2967E0" stroke-width="2" stroke-miterlimit="10" stroke-linecap="round" stroke-linejoin="round"/>
<path d="M18.6909 52.2545H32.8727L35.7091 47.5273L40.4364 56.9818L48 37.1273L53.6727 52.2545H61.2364" stroke="#00CAF6" stroke-width="2" stroke-miterlimit="10" stroke-linecap="round" stroke-linejoin="round"/>
</svg>
