<svg width="96" height="96" viewBox="0 0 96 96" fill="none" xmlns="http://www.w3.org/2000/svg">
<circle cx="48" cy="48" r="48" fill="#F3F9FF"/>
<path d="M47.4122 42.9677C47.8754 42.9677 48.2509 42.5922 48.2509 42.129C48.2509 41.6658 47.8754 41.2903 47.4122 41.2903C46.949 41.2903 46.5735 41.6658 46.5735 42.129C46.5735 42.5922 46.949 42.9677 47.4122 42.9677Z" fill="#2967E0"/>
<path d="M47.4124 62.2581V74" stroke="#2967E0" stroke-width="2" stroke-miterlimit="10" stroke-linecap="round" stroke-linejoin="round"/>
<path d="M44.938 22C43.7051 24.4826 41.1471 26.1935 38.1864 26.1935C35.2258 26.1935 32.6761 24.4826 31.4348 22" stroke="#2967E0" stroke-width="2" stroke-miterlimit="10" stroke-linecap="round" stroke-linejoin="round"/>
<path d="M63.3897 22C62.1568 24.4826 59.5987 26.1935 56.6381 26.1935C53.6774 26.1935 51.1278 24.4826 49.8865 22" stroke="#2967E0" stroke-width="2" stroke-miterlimit="10" stroke-linecap="round" stroke-linejoin="round"/>
<path d="M33.9929 25.3549C33.9929 25.3549 36.6349 33.4316 31.4768 46.3226C26.4446 58.9032 30.6381 74 30.6381 74" stroke="#2967E0" stroke-width="2" stroke-miterlimit="10" stroke-linecap="round" stroke-linejoin="round"/>
<path d="M60.8317 25.3549C60.8317 25.3549 57.4769 33.742 63.3478 46.3226C69.2188 58.9032 64.1865 74 64.1865 74" stroke="#2967E0" stroke-width="2" stroke-miterlimit="10" stroke-linecap="round" stroke-linejoin="round"/>
<path d="M43.3948 58.0646C46.1122 60.0859 47.4122 62.2581 47.4122 62.2581C47.4122 62.2581 48.7122 60.0859 51.4296 58.0646" stroke="#2967E0" stroke-width="2" stroke-miterlimit="10" stroke-linecap="round" stroke-linejoin="round"/>
<path d="M59.1543 46.3225C59.1543 46.3225 59.0369 46.767 58.8691 47.547" stroke="#00CAF6" stroke-width="2" stroke-linecap="round" stroke-linejoin="round"/>
<path d="M58.1478 52.1683C57.7704 55.7077 57.6613 60.3625 58.802 64.7322" stroke="#00CAF6" stroke-width="2" stroke-linecap="round" stroke-linejoin="round" stroke-dasharray="3.35 3.35"/>
<path d="M59.5066 66.9631C59.6576 67.3573 59.8169 67.7431 59.993 68.1289" stroke="#00CAF6" stroke-width="2" stroke-linecap="round" stroke-linejoin="round"/>
<path d="M35.2427 46.3226C35.2427 46.3226 35.3601 46.7672 35.5278 47.5472" stroke="#00CAF6" stroke-width="2" stroke-linecap="round" stroke-linejoin="round"/>
<path d="M36.2489 52.1683C36.6263 55.7077 36.7354 60.3625 35.5947 64.7322" stroke="#00CAF6" stroke-width="2" stroke-linecap="round" stroke-linejoin="round" stroke-dasharray="3.35 3.35"/>
<path d="M34.8819 66.9633C34.731 67.3575 34.5716 67.7433 34.3955 68.1291" stroke="#00CAF6" stroke-width="2" stroke-linecap="round" stroke-linejoin="round"/>
<path d="M38.1865 30.3871C38.1865 30.3871 43.2188 31.2258 45.7349 27.871" stroke="#00CAF6" stroke-width="2" stroke-miterlimit="10" stroke-linecap="round" stroke-linejoin="round" stroke-dasharray="3 3"/>
<path d="M56.638 30.3871C56.638 30.3871 51.6057 31.2258 49.0896 27.871" stroke="#00CAF6" stroke-width="2" stroke-miterlimit="10" stroke-linecap="round" stroke-linejoin="round" stroke-dasharray="3 3"/>
<path d="M40.7026 49.6774H42.3801" stroke="#00CAF6" stroke-width="2" stroke-miterlimit="10" stroke-linecap="round" stroke-linejoin="round"/>
<path d="M52.4446 49.6774H54.122" stroke="#00CAF6" stroke-width="2" stroke-miterlimit="10" stroke-linecap="round" stroke-linejoin="round"/>
<path d="M46.5735 49.6774H48.2509" stroke="#00CAF6" stroke-width="2" stroke-miterlimit="10" stroke-linecap="round" stroke-linejoin="round"/>
</svg>
